<svg width="24" height="24" viewBox="0 0 24 24" fill="none" xmlns="http://www.w3.org/2000/svg">
<path fill-rule="evenodd" clip-rule="evenodd" d="M14.5 6.75C14.5 6.29968 14.5407 5.8826 14.621 5.5H6.75C6.15326 5.5 5.58097 5.73705 5.15901 6.15901C4.73705 6.58097 4.5 7.15326 4.5 7.75V14.75C4.5 15.3467 4.73705 15.919 5.15901 16.341C5.58097 16.7629 6.15326 17 6.75 17H7V19.492L11.7355 17H17.75C18.0455 17 18.3381 16.9418 18.611 16.8287C18.884 16.7157 19.1321 16.5499 19.341 16.341C19.5499 16.1321 19.7157 15.884 19.8287 15.611C19.9418 15.3381 20 15.0455 20 14.75V10.879C19.6174 10.9593 19.2003 11 18.75 11C18.6655 11 18.5822 10.9986 18.5 10.9957V14.75C18.5 14.9489 18.421 15.1397 18.2803 15.2803C18.1397 15.421 17.9489 15.5 17.75 15.5H11.3645L8.5 17.008V15.5H6.75C6.55109 15.5 6.36032 15.421 6.21967 15.2803C6.07902 15.1397 6 14.9489 6 14.75V7.75C6 7.55109 6.07902 7.36032 6.21967 7.21967C6.36032 7.07902 6.55109 7 6.75 7H14.5043C14.5014 6.91784 14.5 6.83451 14.5 6.75ZM13.5 12H9.5V13.5H13.5V12ZM15 9V10.5H9.5V9H15Z" fill="#1E1919"/>
<path fill-rule="evenodd" clip-rule="evenodd" d="M16 6.75C16 4.97659 16.9766 4 18.75 4C20.5234 4 21.5 4.97659 21.5 6.75C21.5 8.52341 20.5234 9.5 18.75 9.5C16.9766 9.5 16 8.52341 16 6.75Z" fill="#1E1919"/>
</svg>
