<svg width="24" height="24" viewBox="0 0 24 24" fill="none" xmlns="http://www.w3.org/2000/svg">
<path d="M4 4.5V19.5H19.5V4.5H4ZM5.5 6H11V13H13.983C13.8985 14.3215 13.154 15 11.75 15C10.346 15 9.6 14.3215 9.517 13H8.01C8.11 15.1645 9.5225 16.5 11.75 16.5C12.5437 16.5226 13.3264 16.3104 14 15.89V18H5.5V6ZM18 18H15.5V11.5H12.5V6H18V18Z" fill="#1E1919"/>
<path d="M9.5 9C9.51079 8.86594 9.49232 8.73113 9.44589 8.60491C9.39945 8.47869 9.32614 8.36406 9.23104 8.26896C9.13594 8.17385 9.02131 8.10055 8.89509 8.05411C8.76886 8.00767 8.63406 7.98921 8.5 8C8.36594 7.98921 8.23113 8.00767 8.10491 8.05411C7.97869 8.10055 7.86406 8.17385 7.76896 8.26896C7.67385 8.36406 7.60055 8.47869 7.55411 8.60491C7.50767 8.73113 7.48921 8.86594 7.5 9C7.48921 9.13406 7.50767 9.26886 7.55411 9.39509C7.60055 9.52131 7.67385 9.63594 7.76896 9.73104C7.86406 9.82614 7.97869 9.89945 8.10491 9.94589C8.23113 9.99232 8.36594 10.0108 8.5 10C8.63406 10.0108 8.76886 9.99232 8.89509 9.94589C9.02131 9.89945 9.13594 9.82614 9.23104 9.73104C9.32614 9.63594 9.39945 9.52131 9.44589 9.39509C9.49232 9.26886 9.51079 9.13406 9.5 9Z" fill="#1E1919"/>
<path d="M15 10C15.1341 10.0108 15.2689 9.99233 15.3951 9.94589C15.5213 9.89945 15.6359 9.82614 15.731 9.73104C15.8261 9.63594 15.8994 9.52131 15.9459 9.39509C15.9923 9.26887 16.0108 9.13406 16 9C16 8.73478 15.8946 8.48043 15.7071 8.29289C15.5196 8.10536 15.2652 8 15 8C14.7348 8 14.4804 8.10536 14.2929 8.29289C14.1054 8.48043 14 8.73478 14 9C13.9892 9.13406 14.0077 9.26887 14.0541 9.39509C14.1005 9.52131 14.1739 9.63594 14.269 9.73104C14.3641 9.82614 14.4787 9.89945 14.6049 9.94589C14.7311 9.99233 14.8659 10.0108 15 10Z" fill="#1E1919"/>
</svg>
