<svg width="24" height="24" viewBox="0 0 24 24" fill="none" xmlns="http://www.w3.org/2000/svg">
<path d="M18.3775 17.5C18.4601 16.8605 18.5 16.1927 18.5 15.5C18.5 12.4437 17.7237 9.87225 15.9257 8.07428C14.1277 6.27629 11.5563 5.5 8.5 5.5C7.80731 5.5 7.13952 5.53988 6.5 5.62249V7.13614C7.12237 7.04543 7.78909 7 8.5 7C11.3204 7 13.4452 7.71511 14.8651 9.13493C16.2849 10.5548 17 12.6796 17 15.5C17 16.2109 16.9546 16.8776 16.8639 17.5H18.3775Z" fill="#1E1919"/>
<path d="M14.2755 17.5C14.4243 16.8968 14.5 16.2293 14.5 15.5C14.5 11.631 12.369 9.5 8.5 9.5C7.7707 9.5 7.10316 9.57572 6.5 9.72452V11.2838C7.06807 11.0941 7.73428 11 8.5 11C11.528 11 13 12.472 13 15.5C13 16.2657 12.9059 16.9319 12.7162 17.5H14.2755Z" fill="#1E1919"/>
<path d="M6.51358 15.5C6.48018 15.2312 6.50857 14.9582 6.59659 14.702C6.68461 14.4458 6.82993 14.2131 7.02149 14.0215C7.21306 13.8299 7.44581 13.6846 7.70202 13.5966C7.95824 13.5086 8.23116 13.4802 8.5 13.5136C8.76884 13.4802 9.04176 13.5086 9.29798 13.5966C9.55419 13.6846 9.78694 13.8299 9.97851 14.0215C10.1701 14.2131 10.3154 14.4458 10.4034 14.702C10.4914 14.9582 10.5198 15.2312 10.4864 15.5C10.5198 15.7688 10.4914 16.0418 10.4034 16.298C10.3154 16.5542 10.1701 16.7869 9.97851 16.9785C9.78694 17.1701 9.55419 17.3154 9.29798 17.4034C9.04176 17.4914 8.76884 17.5198 8.5 17.4864C8.23116 17.5198 7.95824 17.4914 7.70202 17.4034C7.44581 17.3154 7.21306 17.1701 7.02149 16.9785C6.82993 16.7869 6.68461 16.5542 6.59659 16.298C6.50857 16.0418 6.48018 15.7688 6.51358 15.5Z" fill="#1E1919"/>
</svg>
