<svg width="24" height="24" viewBox="0 0 24 24" fill="none" xmlns="http://www.w3.org/2000/svg">
<path d="M19.497 11.6575C19.4665 6.507 16.933 4 11.75 4C6.535 4 4 6.535 4 11.75C4 16.965 6.535 19.5 11.75 19.5C13.288 19.5563 14.8166 19.2381 16.2045 18.573L15.331 17.3115C14.2056 17.8117 12.9806 18.0472 11.75 18C7.4275 18 5.5 16.0725 5.5 11.75C5.5 7.4275 7.4275 5.5 11.75 5.5C16.0725 5.5 18 7.4275 18 11.75V12.25C18 12.7141 17.8156 13.1592 17.4874 13.4874C17.1592 13.8156 16.7141 14 16.25 14C16.0511 14 15.8603 13.921 15.7197 13.7803C15.579 13.6397 15.5 13.4489 15.5 13.25V8H14V8.61C13.3264 8.18961 12.5437 7.97741 11.75 8C9.437 8 8 9.437 8 11.75C8 14.063 9.437 15.5 11.75 15.5C12.73 15.5423 13.6882 15.2032 14.4235 14.554C14.6305 14.8459 14.9043 15.084 15.222 15.2485C15.5397 15.4131 15.8922 15.4993 16.25 15.5C17.1116 15.4989 17.9377 15.1562 18.5469 14.5469C19.1562 13.9377 19.4989 13.1116 19.5 12.25V11.6575H19.497ZM11.75 14C10.257 14 9.5 13.243 9.5 11.75C9.5 10.257 10.257 9.5 11.75 9.5C13.243 9.5 14 10.257 14 11.75C14 13.243 13.243 14 11.75 14Z" fill="#1E1919"/>
</svg>
