<svg width="24" height="24" viewBox="0 0 24 24" fill="none" xmlns="http://www.w3.org/2000/svg">
<path d="M7 4V20H17.5V4H7ZM16 18.5H8.5V5.5H16V18.5Z" fill="#1E1919"/>
<path d="M12.25 17C12.4176 17.0135 12.5861 16.9904 12.7439 16.9324C12.9017 16.8744 13.045 16.7827 13.1639 16.6639C13.2827 16.545 13.3744 16.4017 13.4324 16.2439C13.4904 16.0861 13.5135 15.9176 13.5 15.75C13.5135 15.5824 13.4904 15.4139 13.4324 15.2561C13.3744 15.0983 13.2827 14.955 13.1639 14.8362C13.045 14.7173 12.9017 14.6256 12.7439 14.5676C12.5861 14.5096 12.4176 14.4865 12.25 14.5C12.0824 14.4865 11.9139 14.5096 11.7561 14.5676C11.5983 14.6256 11.455 14.7173 11.3362 14.8362C11.2173 14.955 11.1256 15.0983 11.0676 15.2561C11.0096 15.4139 10.9865 15.5824 11 15.75C10.9865 15.9176 11.0096 16.0861 11.0676 16.2439C11.1256 16.4017 11.2173 16.545 11.3362 16.6639C11.455 16.7827 11.5983 16.8744 11.7561 16.9324C11.9139 16.9904 12.0824 17.0135 12.25 17Z" fill="#1E1919"/>
</svg>
