<svg width="24" height="24" viewBox="0 0 24 24" fill="none" xmlns="http://www.w3.org/2000/svg">
<path d="M11.5 5V6.5H16.4395L10.861 12.0785L11.9215 13.139L17.5 7.5605V12.5H19V5H11.5Z" fill="#1E1919"/>
<path d="M17.5 16.75C17.5 16.9489 17.421 17.1397 17.2803 17.2803C17.1397 17.421 16.9489 17.5 16.75 17.5H7.25C7.05109 17.5 6.86032 17.421 6.71967 17.2803C6.57902 17.1397 6.5 16.9489 6.5 16.75V7.25C6.5 7.05109 6.57902 6.86032 6.71967 6.71967C6.86032 6.57902 7.05109 6.5 7.25 6.5H10V5H7.25C6.65326 5 6.08097 5.23705 5.65901 5.65901C5.23705 6.08097 5 6.65326 5 7.25V16.75C5 17.3467 5.23705 17.919 5.65901 18.341C6.08097 18.7629 6.65326 19 7.25 19H16.75C17.0455 19 17.3381 18.9418 17.611 18.8287C17.884 18.7157 18.1321 18.5499 18.341 18.341C18.5499 18.1321 18.7157 17.884 18.8287 17.611C18.9418 17.3381 19 17.0455 19 16.75V14H17.5V16.75Z" fill="#1E1919"/>
</svg>
