<svg width="24" height="24" viewBox="0 0 24 24" fill="none" xmlns="http://www.w3.org/2000/svg">
<path d="M12 4C6.841 4 4 6.841 4 12C4 17.159 6.841 20 12 20C17.159 20 20 17.159 20 12C20 6.841 17.159 4 12 4ZM12 5.5C16.374 5.5 18.5 7.626 18.5 12C18.5217 13.0378 18.3609 14.0713 18.025 15.0535C17.6418 14.5912 17.1654 14.215 16.6269 13.9492C16.0885 13.6835 15.5 13.5344 14.9 13.5115C15.3248 12.7445 15.5323 11.8762 15.5 11C15.5 8.458 14.2245 7 12 7C9.7755 7 8.5 8.458 8.5 11C8.46782 11.876 8.67527 12.7442 9.1 13.511C8.49947 13.5292 7.90974 13.6753 7.37023 13.9397C6.83072 14.2041 6.35385 14.5806 5.9715 15.044C5.63818 14.0646 5.47861 13.0344 5.5 12C5.5 7.626 7.626 5.5 12 5.5ZM10 11C10 8.784 11.069 8.5 12 8.5C12.931 8.5 14 8.784 14 11C14 13.216 12.931 13.5 12 13.5C11.069 13.5 10 13.216 10 11ZM12 18.5C9.5845 18.5 7.858 17.85 6.793 16.5305C7.01803 16.0708 7.36768 15.6836 7.80209 15.413C8.2365 15.1424 8.7382 14.9993 9.25 15H14.75C15.261 15.0029 15.7612 15.1475 16.195 15.4177C16.6287 15.6879 16.9791 16.0731 17.207 16.5305C16.142 17.85 14.4155 18.5 12 18.5Z" fill="#1E1919"/>
</svg>
