<svg width="24" height="24" viewBox="0 0 24 24" fill="none" xmlns="http://www.w3.org/2000/svg">
<path d="M7.382 5.5L3.203 18.5H4.779L6.0645 14.5H10.9355L12.221 18.5H13.7965L9.618 5.5H7.382ZM6.547 13L8.5 6.923L10.453 13H6.547Z" fill="#1E1919"/>
<path d="M19.5 12V12.883C19.3129 12.5937 19.0522 12.3595 18.7447 12.2043C18.4371 12.0491 18.0938 11.9786 17.75 12C15.715 12 14.5 13.215 14.5 15.25C14.5 17.285 15.715 18.5 17.75 18.5C18.1153 18.5083 18.4752 18.4104 18.7858 18.218C19.0965 18.0257 19.3446 17.7472 19.5 17.4165V18.5H21V12H19.5ZM17.75 17C16.54 17 16 16.46 16 15.25C16 14.04 16.54 13.5 17.75 13.5C18.96 13.5 19.5 14.04 19.5 15.25C19.5 16.46 18.96 17 17.75 17Z" fill="#1E1919"/>
</svg>
